External Loads File
version=1
nRows=54
nColumns=13
Range=5.000000e-03-10 seconds
endheader
time 	forceRightX 	forceRightY 	forceRightZ 	pointRightX 	pointRightY 	pointRightZ 	forceLeftX 	forceLeftY 	forceLeftZ 	pointLeftX 	pointLeftY 	pointLeftZ 		
2.505000 -71.208292 -207.938282 -0.000000 0.064000 0.256912 -0.121479 -65.223115 439.364923 -0.000000 0.353831 0.353993 -0.368337
2.510000 -61.479775 -186.756609 -0.000000 0.062394 0.266934 -0.121413 -63.148560 478.356234 -0.000000 0.354637 0.343787 -0.367917
2.515000 -50.840704 -165.735526 -0.000000 0.061375 0.277245 -0.121279 -59.809971 515.092756 -0.000000 0.354919 0.333346 -0.367783
2.520000 -39.585611 -145.475422 -0.000000 0.060985 0.287432 -0.121238 -56.446291 549.509524 -0.000000 0.354946 0.323075 -0.367471
2.525000 -28.529840 -126.320038 -0.000000 0.061278 0.297628 -0.121134 -52.770495 582.084969 -0.000000 0.354060 0.312698 -0.367406
2.530000 -18.242400 -108.667450 -0.000000 0.062199 0.307879 -0.120948 -48.779720 613.528001 -0.000000 0.353878 0.302232 -0.367980
2.535000 -9.085450 -92.950370 -0.000000 0.063905 0.318101 -0.121189 -45.141042 644.628959 -0.000000 0.352353 0.291740 -0.366801
2.540000 -1.519324 -79.556008 -0.000000 0.066213 0.328323 -0.121262 -41.758773 676.254651 -0.000000 0.350566 0.281193 -0.366581
2.545000 4.135173 -68.783654 -0.000000 0.068043 0.338562 -0.122840 -39.481828 709.166639 -0.000000 0.348272 0.270754 -0.366326
2.550000 7.406997 -60.743114 -0.000000 0.071708 0.348523 -0.122750 -37.705602 744.135463 -0.000000 0.345350 0.260417 -0.366179
2.555000 7.833913 -55.320382 -0.000000 0.076818 0.358644 -0.122045 -34.334093 781.748483 -0.000000 0.341822 0.250172 -0.365957
2.560000 4.592373 -52.170609 -0.000000 0.081586 0.368550 -0.122596 -18.328448 822.315316 -0.000000 0.337649 0.235240 -0.365836
2.565000 0.069303 -50.484609 -0.000000 0.086844 0.377911 -0.122946 -27.018552 864.235051 -0.000000 0.332806 0.230360 -0.365734
2.570000 -9.225247 -49.649612 -0.000000 0.092566 0.387110 -0.123095 1.463941 908.054988 -0.000000 0.327424 0.212409 -0.365477
2.575000 -19.643431 -49.159548 -0.000000 0.099505 0.395897 -0.123662 11.315165 951.463902 -0.000000 0.321497 0.203478 -0.365247
2.580000 -30.841211 -49.208722 -0.000000 0.107344 0.404269 -0.123612 2.747013 993.540511 -0.000000 0.315095 0.204010 -0.365010
2.585000 -44.405856 -48.375625 -0.000000 0.114950 0.412085 -0.123834 19.621710 1032.045243 -0.000000 0.308257 0.195958 -0.364796
2.590000 -58.377135 -47.227593 -0.000000 0.121162 0.419443 -0.125426 35.888681 1064.943821 -0.000000 0.300989 0.188204 -0.364688
2.595000 -72.539674 -45.436068 -0.000000 0.129508 0.426218 -0.125746 59.484854 1089.914873 -0.000000 0.293398 0.181125 -0.364524
2.600000 -86.390376 -42.960840 -0.000000 0.139305 0.432706 -0.124863 90.234411 1104.910361 -0.000000 0.285351 0.174500 -0.364482
2.605000 -99.182950 -40.541492 -0.000000 0.148218 0.438572 -0.124972 118.198463 1109.268328 -0.000000 0.277169 0.168307 -0.364422
2.610000 -110.738673 -38.033613 -0.000000 0.157114 0.443879 -0.125535 144.907045 1102.205134 -0.000000 0.268768 0.162701 -0.364369
2.615000 -120.896256 -35.130394 -0.000000 0.166499 0.448797 -0.125687 171.049511 1083.261374 -0.000000 0.260182 0.157683 -0.364266
2.620000 -129.403916 -31.804717 -0.000000 0.175901 0.453175 -0.125945 193.568649 1052.921479 -0.000000 0.251512 0.153177 -0.364254
2.625000 -136.088183 -27.821668 -0.000000 0.185308 0.457042 -0.126286 211.482885 1011.866740 -0.000000 0.242793 0.149278 -0.364303
2.630000 -140.809607 -22.908953 -0.000000 0.194899 0.460270 -0.126486 224.588837 960.969168 -0.000000 0.234109 0.145920 -0.364330
2.635000 -143.492308 -16.849821 -0.000000 0.204750 0.463015 -0.126801 232.953770 901.256705 -0.000000 0.225428 0.143370 -0.364394
2.640000 -144.135721 -9.762197 -0.000000 0.214414 0.465130 -0.126586 235.272298 834.299788 -0.000000 0.216780 0.141128 -0.364387
2.645000 -142.873472 -1.411413 -0.000000 0.224349 0.466783 -0.126736 233.092104 761.064089 -0.000000 0.208106 0.139432 -0.364470
2.650000 -139.867493 7.661426 -0.000000 0.233705 0.467713 -0.126594 224.312532 683.700295 -0.000000 0.199664 0.138393 -0.364585
2.655000 -135.312310 17.824764 -0.000000 0.243215 0.468086 -0.126638 212.193947 602.819428 -0.000000 0.191175 0.138261 -0.364497
2.660000 -129.393847 28.805631 -0.000000 0.252572 0.467930 -0.126630 196.878404 520.095738 -0.000000 0.182598 0.138588 -0.364441
2.665000 -122.283359 40.438248 -0.000000 0.261696 0.467171 -0.126602 179.245586 437.062884 -0.000000 0.173964 0.139552 -0.364320
2.670000 -114.113002 52.634362 -0.000000 0.270447 0.465732 -0.126518 160.384681 355.112949 -0.000000 0.165256 0.141672 -0.364170
2.675000 -105.012794 65.331685 -0.000000 0.278814 0.463763 -0.126310 141.052093 275.526132 -0.000000 0.156422 0.144575 -0.363941
2.680000 -95.097021 78.626239 -0.000000 0.286877 0.461335 -0.126357 121.785676 199.289847 -0.000000 0.147591 0.148232 -0.363514
2.685000 -84.583394 92.716387 -0.000000 0.294321 0.458246 -0.126269 102.707284 127.180647 -0.000000 0.139056 0.152440 -0.363169
2.690000 -73.431364 108.309139 -0.000000 0.301472 0.454550 -0.125841 84.293178 59.261880 -0.000000 0.130613 0.157131 -0.362680
2.695000 -61.843151 126.069822 -0.000000 0.307897 0.450153 -0.125711 66.402221 -4.343467 -0.000000 0.122596 0.162458 -0.362311
2.700000 -49.637047 147.028325 -0.000000 0.314140 0.445323 -0.125064 48.811655 -63.721172 -0.000000 0.114751 0.168358 -0.361779
2.705000 -36.854998 172.052356 -0.000000 0.319563 0.439669 -0.124991 31.019563 -118.354460 -0.000000 0.107205 0.174970 -0.361100
2.710000 -23.496251 201.846563 -0.000000 0.324655 0.433660 -0.124728 12.600774 -167.148825 -0.000000 0.100271 0.182239 -0.360459
2.715000 -10.037647 236.661607 -0.000000 0.329306 0.427166 -0.124243 -6.183971 -208.519765 -0.000000 0.094310 0.189503 -0.360155
2.720000 3.148443 276.236072 -0.000000 0.333375 0.420288 -0.123728 -24.669756 -240.939908 -0.000000 0.088993 0.196595 -0.360194
2.725000 16.232138 319.669941 -0.000000 0.337277 0.412893 -0.123403 -42.195598 -263.326715 -0.000000 0.084157 0.203813 -0.359731
2.730000 28.674194 365.585448 -0.000000 0.340753 0.405105 -0.123132 -57.096901 -275.478847 -0.000000 0.080058 0.211481 -0.360213
2.735000 41.058615 412.305787 -0.000000 0.343931 0.396943 -0.123001 -68.451569 -277.868987 -0.000000 0.076005 0.219905 -0.360409
2.740000 52.320831 458.337570 -0.000000 0.346566 0.388182 -0.122893 -74.378061 -271.850755 -0.000000 0.072086 0.228269 -0.360543
2.745000 63.893116 502.187221 -0.000000 0.349248 0.378897 -0.123086 -75.119437 -258.757999 -0.000000 0.068464 0.237617 -0.360731
2.750000 75.178071 542.912895 -0.000000 0.351429 0.368849 -0.123119 -70.216652 -240.456387 -0.000000 0.065094 0.247381 -0.360852
2.755000 85.728311 579.926909 -0.000000 0.353270 0.358362 -0.123094 -60.056377 -218.777595 -0.000000 0.062010 0.257422 -0.360902
2.760000 95.807183 612.900422 -0.000000 0.354624 0.347319 -0.122930 -45.810291 -195.320408 -0.000000 0.059458 0.267774 -0.361039
2.765000 104.318522 642.088223 -0.000000 0.355537 0.336218 -0.122561 -28.433179 -171.563370 -0.000000 0.057563 0.278229 -0.361138
2.770000 111.131138 667.975536 -0.000000 0.356242 0.325193 -0.122847 -9.293368 -148.603324 -0.000000 0.056136 0.288722 -0.361385
